<svg width="147" height="34" viewBox="0 0 147 34" fill="none" xmlns="http://www.w3.org/2000/svg">
<path fill-rule="evenodd" clip-rule="evenodd" d="M0 1L1 0H33L34 1V33L33 34H1L0 33V1ZM2 2V32H32V2H2ZM12 19.4142V24.5858L22 14.5858V9.41421L12 19.4142ZM10.2929 18.2929L22.2929 6.29289L24 7V15L23.7071 15.7071L11.7071 27.7071L10 27V19L10.2929 18.2929Z" fill="black"/>
<path d="M45.2793 16V4.8H46.5593V14.48H46.8793L51.9193 4.8H54.0793V16H52.7993V6.32H52.4793L47.4393 16H45.2793Z" fill="black"/>
<path d="M55.5187 16.08V14.88H55.9987C56.6387 14.88 56.9853 14.5067 57.0387 13.76L57.5187 8H62.8787V16H61.6787V9.12H58.6387L58.2387 13.76C58.1 15.3067 57.3533 16.08 55.9987 16.08H55.5187Z" fill="black"/>
<path d="M65.1193 16V8H66.3193V10.72H68.7993C69.5993 10.72 70.25 10.9707 70.7513 11.472C71.2633 11.9627 71.5193 12.592 71.5193 13.36C71.5193 14.128 71.2633 14.7627 70.7513 15.264C70.25 15.7547 69.5993 16 68.7993 16H65.1193ZM66.3193 14.88H68.7993C69.2473 14.88 69.61 14.7413 69.8873 14.464C70.1753 14.176 70.3193 13.808 70.3193 13.36C70.3193 12.912 70.1753 12.5493 69.8873 12.272C69.61 11.984 69.2473 11.84 68.7993 11.84H66.3193V14.88Z" fill="black"/>
<path d="M72.4793 16L75.3593 13.12H75.2793C74.5113 13.12 73.8766 12.8853 73.3753 12.416C72.8846 11.936 72.6393 11.3173 72.6393 10.56C72.6393 9.80267 72.8846 9.18933 73.3753 8.72C73.8766 8.24 74.5113 8 75.2793 8H79.0393V16H77.8393V13.12H76.8793L73.9993 16H72.4793ZM75.2793 12H77.8393V9.12H75.2793C74.8633 9.12 74.5166 9.25333 74.2393 9.52C73.9726 9.776 73.8393 10.1227 73.8393 10.56C73.8393 10.9973 73.9726 11.3493 74.2393 11.616C74.5166 11.872 74.8633 12 75.2793 12Z" fill="black"/>
<path d="M83.843 16L88.083 4.8H90.003L94.243 16H92.883L91.843 13.12H86.243L85.203 16H83.843ZM86.723 11.92H91.363L89.203 6.16H88.883L86.723 11.92Z" fill="black"/>
<path d="M95.3693 16V8H96.5693V11.44H100.809V8H102.009V16H100.809V12.56H96.5693V16H95.3693Z" fill="black"/>
<path d="M103.124 17.92V14.88H103.284C103.647 14.88 103.914 14.7947 104.084 14.624C104.266 14.4533 104.372 14.1653 104.404 13.76L104.884 8H110.244V14.88H111.364V17.92H110.164V16H104.324V17.92H103.124ZM105.204 14.88H109.044V9.12H106.004L105.604 13.76C105.562 14.1973 105.487 14.496 105.38 14.656C105.338 14.7413 105.279 14.816 105.204 14.88Z" fill="black"/>
<path d="M112.807 19.2V8H113.847L114.007 9.12H114.087C114.759 8.26667 115.612 7.84 116.647 7.84C117.703 7.84 118.577 8.22933 119.271 9.008C119.975 9.776 120.327 10.7733 120.327 12C120.327 13.2267 119.975 14.2293 119.271 15.008C118.577 15.776 117.703 16.16 116.647 16.16C115.612 16.16 114.759 15.7333 114.087 14.88H114.007V19.2H112.807ZM114.759 14.192C115.26 14.7573 115.863 15.04 116.567 15.04C117.271 15.04 117.873 14.7573 118.375 14.192C118.876 13.6267 119.127 12.896 119.127 12C119.127 11.104 118.876 10.3733 118.375 9.808C117.873 9.24267 117.271 8.96 116.567 8.96C115.863 8.96 115.26 9.24267 114.759 9.808C114.257 10.3733 114.007 11.104 114.007 12C114.007 12.896 114.257 13.6267 114.759 14.192Z" fill="black"/>
<path d="M127.608 13.76H128.888C128.611 14.528 128.173 15.12 127.576 15.536C126.989 15.952 126.28 16.16 125.448 16.16C124.349 16.16 123.432 15.776 122.696 15.008C121.971 14.2293 121.608 13.2267 121.608 12C121.608 10.7733 121.971 9.776 122.696 9.008C123.432 8.22933 124.349 7.84 125.448 7.84C126.504 7.84 127.379 8.20267 128.072 8.928C128.776 9.65333 129.128 10.5707 129.128 11.68C129.128 11.8507 129.112 12.08 129.08 12.368L129.048 12.56H122.808C122.893 13.3067 123.181 13.9093 123.672 14.368C124.173 14.816 124.765 15.04 125.448 15.04C125.928 15.04 126.355 14.928 126.728 14.704C127.112 14.48 127.405 14.1653 127.608 13.76ZM122.808 11.44H127.928C127.885 10.7147 127.629 10.1227 127.16 9.664C126.701 9.19467 126.131 8.96 125.448 8.96C124.733 8.96 124.136 9.18933 123.656 9.648C123.176 10.1067 122.893 10.704 122.808 11.44Z" fill="black"/>
<path d="M136.405 13.76H137.685C137.408 14.528 136.97 15.12 136.373 15.536C135.786 15.952 135.077 16.16 134.245 16.16C133.146 16.16 132.229 15.776 131.493 15.008C130.768 14.2293 130.405 13.2267 130.405 12C130.405 10.7733 130.768 9.776 131.493 9.008C132.229 8.22933 133.146 7.84 134.245 7.84C135.301 7.84 136.176 8.20267 136.869 8.928C137.573 9.65333 137.925 10.5707 137.925 11.68C137.925 11.8507 137.909 12.08 137.877 12.368L137.845 12.56H131.605C131.69 13.3067 131.978 13.9093 132.469 14.368C132.97 14.816 133.562 15.04 134.245 15.04C134.725 15.04 135.152 14.928 135.525 14.704C135.909 14.48 136.202 14.1653 136.405 13.76ZM131.605 11.44H136.725C136.682 10.7147 136.426 10.1227 135.957 9.664C135.498 9.19467 134.928 8.96 134.245 8.96C133.53 8.96 132.933 9.18933 132.453 9.648C131.973 10.1067 131.69 10.704 131.605 11.44Z" fill="black"/>
<path d="M139.682 16V8H143.842C144.524 8 145.068 8.20267 145.474 8.608C145.879 9.01333 146.082 9.55733 146.082 10.24C146.082 10.7413 145.922 11.1733 145.602 11.536C145.452 11.696 145.292 11.824 145.122 11.92V12C145.303 12.064 145.49 12.1867 145.682 12.368C146.055 12.7413 146.242 13.1947 146.242 13.728C146.242 14.3893 146.028 14.9333 145.602 15.36C145.175 15.7867 144.642 16 144.002 16H139.682ZM140.882 14.96H143.842C144.172 14.96 144.455 14.848 144.69 14.624C144.924 14.3893 145.042 14.0907 145.042 13.728C145.042 13.3547 144.924 13.056 144.69 12.832C144.455 12.5973 144.172 12.48 143.842 12.48H140.882V14.96ZM140.882 11.44H143.682C144.012 11.44 144.295 11.328 144.53 11.104C144.764 10.88 144.882 10.592 144.882 10.24C144.882 9.888 144.764 9.6 144.53 9.376C144.295 9.152 144.012 9.04 143.682 9.04H140.882V11.44Z" fill="black"/>
<path d="M44.8398 27.6V24H45.7398V27.6C45.7398 28.08 45.8958 28.48 46.2078 28.8C46.5198 29.12 46.9038 29.28 47.3598 29.28C47.8398 29.28 48.2478 29.116 48.5838 28.788C48.9278 28.452 49.0998 28.056 49.0998 27.6V24H49.9998V30H49.2198L49.0998 29.34H49.0398C48.8958 29.508 48.7438 29.64 48.5838 29.736C48.1838 29.992 47.7358 30.12 47.2398 30.12C46.5438 30.12 45.9678 29.888 45.5118 29.424C45.0638 28.952 44.8398 28.344 44.8398 27.6Z" fill="#9EA0A3"/>
<path d="M50.9636 30L53.0036 26.94L51.0236 24H52.1036L53.6036 26.28H53.8436L55.3436 24H56.4236L54.4436 26.94L56.4836 30H55.4036L53.8436 27.6H53.6036L52.0436 30H50.9636Z" fill="#9EA0A3"/>
<path d="M56.6092 32.4L59.9092 21.24H60.8092L57.5092 32.4H56.6092Z" fill="#9EA0A3"/>
<path d="M61.6445 27.6V24H62.5445V27.6C62.5445 28.08 62.7005 28.48 63.0125 28.8C63.3245 29.12 63.7085 29.28 64.1645 29.28C64.6445 29.28 65.0525 29.116 65.3885 28.788C65.7325 28.452 65.9045 28.056 65.9045 27.6V24H66.8045V30H66.0245L65.9045 29.34H65.8445C65.7005 29.508 65.5485 29.64 65.3885 29.736C64.9885 29.992 64.5405 30.12 64.0445 30.12C63.3485 30.12 62.7725 29.888 62.3165 29.424C61.8685 28.952 61.6445 28.344 61.6445 27.6Z" fill="#9EA0A3"/>
<path d="M68.5483 30V24H69.4483V30H68.5483ZM68.4883 22.74V21.72H69.5083V22.74H68.4883Z" fill="#9EA0A3"/>
<path d="M73.1092 31.44V29.16H73.2292C73.5012 29.16 73.7012 29.096 73.8292 28.968C73.9652 28.84 74.0452 28.624 74.0692 28.32L74.4292 24H78.4492V29.16H79.2892V31.44H78.3892V30H74.0092V31.44H73.1092ZM74.6692 29.16H77.5492V24.84H75.2692L74.9692 28.32C74.9372 28.648 74.8812 28.872 74.8012 28.992C74.7692 29.056 74.7252 29.112 74.6692 29.16Z" fill="#9EA0A3"/>
<path d="M80.3711 30V24H81.2711V28.92H81.5111L83.7911 24H85.3511V30H84.4511V25.08H84.2111L81.9311 30H80.3711Z" fill="#9EA0A3"/>
<path d="M86.5473 28.14H87.4473C87.4473 28.46 87.5753 28.732 87.8313 28.956C88.0953 29.172 88.4473 29.28 88.8873 29.28C89.3753 29.28 89.7353 29.192 89.9673 29.016C90.2073 28.84 90.3273 28.608 90.3273 28.32C90.3273 28.04 90.2073 27.812 89.9673 27.636C89.7273 27.452 89.3873 27.36 88.9473 27.36H88.4073V26.58H88.9473C89.3553 26.58 89.6673 26.492 89.8833 26.316C90.0993 26.132 90.2073 25.9 90.2073 25.62C90.2073 25.364 90.0953 25.152 89.8713 24.984C89.6473 24.808 89.3193 24.72 88.8873 24.72C88.4713 24.72 88.1473 24.82 87.9153 25.02C87.6833 25.22 87.5673 25.48 87.5673 25.8H86.6673C86.6673 25.256 86.8753 24.8 87.2913 24.432C87.7073 24.064 88.2393 23.88 88.8873 23.88C89.5833 23.88 90.1273 24.048 90.5193 24.384C90.9113 24.712 91.1073 25.128 91.1073 25.632C91.1073 26.048 90.9473 26.392 90.6273 26.664C90.4753 26.792 90.3153 26.884 90.1473 26.94V27C90.4433 27.072 90.6953 27.228 90.9033 27.468C91.1193 27.7 91.2273 27.988 91.2273 28.332C91.2273 28.852 91.0193 29.28 90.6033 29.616C90.1873 29.952 89.6153 30.12 88.8873 30.12C88.1833 30.12 87.6153 29.932 87.1833 29.556C86.7593 29.172 86.5473 28.7 86.5473 28.14Z" fill="#9EA0A3"/>
<path d="M96.4469 30L96.3269 29.28H96.2669C96.1549 29.44 96.0109 29.58 95.8349 29.7C95.4669 29.98 94.9909 30.12 94.4069 30.12C93.7829 30.12 93.2749 29.948 92.8829 29.604C92.4989 29.26 92.3069 28.812 92.3069 28.26C92.3069 27.66 92.5029 27.192 92.8949 26.856C93.2949 26.512 93.8989 26.34 94.7069 26.34H96.3269V26.16C96.3269 25.704 96.1989 25.352 95.9429 25.104C95.6949 24.848 95.3429 24.72 94.8869 24.72C94.4549 24.72 94.1029 24.82 93.8309 25.02C93.5669 25.212 93.4189 25.452 93.3869 25.74H92.4869C92.5189 25.228 92.7469 24.792 93.1709 24.432C93.6029 24.064 94.1749 23.88 94.8869 23.88C95.6149 23.88 96.1869 24.08 96.6029 24.48C97.0189 24.88 97.2269 25.44 97.2269 26.16V30H96.4469ZM96.3269 27.42V27.18H94.7069C94.1949 27.18 93.8149 27.28 93.5669 27.48C93.3269 27.68 93.2069 27.94 93.2069 28.26C93.2069 28.572 93.3109 28.82 93.5189 29.004C93.7269 29.188 94.0229 29.28 94.4069 29.28C95.0069 29.28 95.4749 29.116 95.8109 28.788C96.1549 28.452 96.3269 27.996 96.3269 27.42Z" fill="#9EA0A3"/>
<path d="M98.9102 30V24H99.8102V28.92H100.05L102.33 24H103.89V30H102.99V25.08H102.75L100.47 30H98.9102ZM99.7502 21.48H100.53C100.562 21.744 100.658 21.952 100.818 22.104C100.978 22.248 101.182 22.32 101.43 22.32C101.678 22.32 101.882 22.248 102.042 22.104C102.202 21.952 102.298 21.744 102.33 21.48H103.11C103.078 21.928 102.906 22.292 102.594 22.572C102.282 22.844 101.894 22.98 101.43 22.98C100.966 22.98 100.578 22.844 100.266 22.572C99.9542 22.292 99.7822 21.928 99.7502 21.48Z" fill="#9EA0A3"/>
<path d="M105.566 30V24H106.466V26.58H109.646V24H110.546V30H109.646V27.42H106.466V30H105.566Z" fill="#9EA0A3"/>
<path d="M116.363 28.32H117.323C117.115 28.896 116.787 29.34 116.339 29.652C115.899 29.964 115.367 30.12 114.743 30.12C113.919 30.12 113.231 29.832 112.679 29.256C112.135 28.672 111.863 27.92 111.863 27C111.863 26.08 112.135 25.332 112.679 24.756C113.231 24.172 113.919 23.88 114.743 23.88C115.535 23.88 116.191 24.152 116.711 24.696C117.239 25.24 117.503 25.928 117.503 26.76C117.503 26.888 117.491 27.06 117.467 27.276L117.443 27.42H112.763C112.827 27.98 113.043 28.432 113.411 28.776C113.787 29.112 114.231 29.28 114.743 29.28C115.103 29.28 115.423 29.196 115.703 29.028C115.991 28.86 116.211 28.624 116.363 28.32ZM112.763 26.58H116.603C116.571 26.036 116.379 25.592 116.027 25.248C115.683 24.896 115.255 24.72 114.743 24.72C114.207 24.72 113.759 24.892 113.399 25.236C113.039 25.58 112.827 26.028 112.763 26.58Z" fill="#9EA0A3"/>
<path d="M118.82 32.4V24H119.6L119.72 24.84H119.78C120.284 24.2 120.924 23.88 121.7 23.88C122.492 23.88 123.148 24.172 123.668 24.756C124.196 25.332 124.46 26.08 124.46 27C124.46 27.92 124.196 28.672 123.668 29.256C123.148 29.832 122.492 30.12 121.7 30.12C120.924 30.12 120.284 29.8 119.78 29.16H119.72V32.4H118.82ZM120.284 28.644C120.66 29.068 121.112 29.28 121.64 29.28C122.168 29.28 122.62 29.068 122.996 28.644C123.372 28.22 123.56 27.672 123.56 27C123.56 26.328 123.372 25.78 122.996 25.356C122.62 24.932 122.168 24.72 121.64 24.72C121.112 24.72 120.66 24.932 120.284 25.356C119.908 25.78 119.72 26.328 119.72 27C119.72 27.672 119.908 28.22 120.284 28.644Z" fill="#9EA0A3"/>
</svg>
